<svg width="304" height="40" viewBox="0 0 304 40" fill="none" xmlns="http://www.w3.org/2000/svg">
<line x1="1" y1="40" x2="1" stroke="#FBFCF8" stroke-width="2"/>
<path d="M17.128 13.008V13.488C16.584 13.504 16.168 13.568 15.88 13.68C15.608 13.776 15.424 13.968 15.328 14.256C15.232 14.528 15.184 14.96 15.184 15.552V27.456C15.184 28.032 15.232 28.464 15.328 28.752C15.424 29.04 15.608 29.232 15.88 29.328C16.168 29.408 16.584 29.448 17.128 29.448H18.88C19.632 29.448 20.24 29.368 20.704 29.208C21.184 29.048 21.56 28.8 21.832 28.464C22.12 28.112 22.336 27.648 22.48 27.072C22.624 26.496 22.736 25.792 22.816 24.96H23.368C23.32 25.456 23.296 26.112 23.296 26.928C23.296 27.232 23.304 27.672 23.32 28.248C23.352 28.808 23.4 29.392 23.464 30C22.648 29.968 21.728 29.952 20.704 29.952C19.68 29.936 18.768 29.928 17.968 29.928C17.616 29.928 17.16 29.928 16.6 29.928C16.056 29.928 15.464 29.936 14.824 29.952C14.184 29.952 13.536 29.96 12.88 29.976C12.224 29.976 11.6 29.984 11.008 30V29.52C11.552 29.488 11.96 29.424 12.232 29.328C12.52 29.232 12.712 29.04 12.808 28.752C12.904 28.464 12.952 28.032 12.952 27.456V15.552C12.952 14.96 12.904 14.528 12.808 14.256C12.712 13.968 12.52 13.776 12.232 13.68C11.96 13.568 11.552 13.504 11.008 13.488V13.008C11.344 13.024 11.784 13.04 12.328 13.056C12.872 13.072 13.456 13.08 14.08 13.08C14.64 13.08 15.192 13.072 15.736 13.056C16.296 13.04 16.76 13.024 17.128 13.008ZM35.7014 17.376V27.408C35.7014 28.128 35.8294 28.664 36.0854 29.016C36.3574 29.352 36.8374 29.52 37.5254 29.52V30.024C37.0294 29.976 36.5334 29.952 36.0374 29.952C35.5734 29.952 35.1254 29.976 34.6934 30.024C34.2774 30.072 33.8934 30.16 33.5414 30.288V27.456C33.1414 28.496 32.5734 29.24 31.8374 29.688C31.1174 30.12 30.3734 30.336 29.6054 30.336C29.0454 30.336 28.5574 30.256 28.1414 30.096C27.7254 29.936 27.3814 29.712 27.1094 29.424C26.8054 29.104 26.5974 28.688 26.4854 28.176C26.3734 27.664 26.3174 27.032 26.3174 26.28V20.256C26.3174 19.536 26.1894 19.008 25.9334 18.672C25.6774 18.32 25.1974 18.144 24.4934 18.144V17.64C25.0054 17.688 25.5014 17.712 25.9814 17.712C26.4454 17.712 26.8854 17.688 27.3014 17.64C27.7334 17.576 28.1254 17.488 28.4774 17.376V26.808C28.4774 27.304 28.5094 27.76 28.5734 28.176C28.6374 28.592 28.7974 28.928 29.0534 29.184C29.3094 29.44 29.7254 29.568 30.3014 29.568C30.9254 29.568 31.4774 29.376 31.9574 28.992C32.4534 28.608 32.8374 28.088 33.1094 27.432C33.3974 26.776 33.5414 26.04 33.5414 25.224V20.256C33.5414 19.536 33.4134 19.008 33.1574 18.672C32.9014 18.32 32.4214 18.144 31.7174 18.144V17.64C32.2294 17.688 32.7254 17.712 33.2054 17.712C33.6694 17.712 34.1094 17.688 34.5254 17.64C34.9574 17.576 35.3494 17.488 35.7014 17.376ZM43.1427 17.64V18.144C42.8387 18.144 42.5827 18.216 42.3747 18.36C42.1667 18.504 42.1427 18.704 42.3027 18.96L48.7107 28.296C48.9827 28.696 49.2227 28.984 49.4307 29.16C49.6387 29.32 49.8947 29.432 50.1987 29.496V30C50.0387 29.984 49.7907 29.968 49.4547 29.952C49.1347 29.92 48.8147 29.904 48.4947 29.904C47.9987 29.904 47.4627 29.92 46.8867 29.952C46.3267 29.968 45.9187 29.984 45.6627 30V29.496C45.9827 29.496 46.2467 29.424 46.4547 29.28C46.6627 29.12 46.6787 28.92 46.5027 28.68L40.0947 19.344C39.7747 18.88 39.5187 18.576 39.3267 18.432C39.1347 18.272 38.8947 18.176 38.6067 18.144V17.64C38.7667 17.656 39.0147 17.68 39.3507 17.712C39.6867 17.728 40.0067 17.736 40.3107 17.736C40.8227 17.736 41.3587 17.728 41.9187 17.712C42.4787 17.68 42.8867 17.656 43.1427 17.64ZM43.7907 23.736C43.7907 23.736 43.8067 23.792 43.8387 23.904C43.8707 24 43.9027 24.104 43.9347 24.216C43.9827 24.328 44.0067 24.384 44.0067 24.384L42.0147 26.976C41.5987 27.52 41.3747 27.976 41.3427 28.344C41.3267 28.712 41.4787 28.992 41.7987 29.184C42.1187 29.36 42.5587 29.472 43.1187 29.52V30C42.8467 29.984 42.5427 29.976 42.2067 29.976C41.8707 29.96 41.5427 29.952 41.2227 29.952C40.9187 29.936 40.6387 29.928 40.3827 29.928C40.0147 29.928 39.6787 29.936 39.3747 29.952C39.0867 29.952 38.8147 29.968 38.5587 30V29.52C38.8627 29.488 39.1747 29.352 39.4947 29.112C39.8307 28.856 40.2227 28.432 40.6707 27.84L43.7907 23.736ZM49.7187 17.64V18.12C49.4147 18.152 49.0787 18.312 48.7107 18.6C48.3587 18.872 47.9907 19.272 47.6067 19.8L44.8467 23.616C44.8467 23.616 44.8307 23.568 44.7987 23.472C44.7667 23.36 44.7347 23.256 44.7027 23.16C44.6707 23.048 44.6547 22.992 44.6547 22.992L46.5267 20.376C46.8787 19.88 47.1027 19.472 47.1987 19.152C47.2947 18.832 47.2387 18.592 47.0307 18.432C46.8387 18.256 46.4547 18.152 45.8787 18.12V17.64C46.2947 17.656 46.6387 17.672 46.9107 17.688C47.1987 17.704 47.5267 17.712 47.8947 17.712C48.2627 17.712 48.5907 17.704 48.8787 17.688C49.1827 17.672 49.4627 17.656 49.7187 17.64ZM56.6296 17.304C58.0376 17.304 59.1336 17.736 59.9176 18.6C60.7176 19.448 61.1176 20.776 61.1176 22.584H52.6456L52.6216 22.128H58.8136C58.8456 21.344 58.7816 20.624 58.6216 19.968C58.4616 19.296 58.2056 18.76 57.8536 18.36C57.5176 17.96 57.0776 17.76 56.5336 17.76C55.7976 17.76 55.1416 18.128 54.5656 18.864C54.0056 19.6 53.6696 20.768 53.5576 22.368L53.6296 22.464C53.5976 22.704 53.5736 22.968 53.5576 23.256C53.5416 23.544 53.5336 23.832 53.5336 24.12C53.5336 25.208 53.7096 26.144 54.0616 26.928C54.4136 27.712 54.8696 28.312 55.4296 28.728C56.0056 29.128 56.5976 29.328 57.2056 29.328C57.6856 29.328 58.1416 29.256 58.5736 29.112C59.0056 28.952 59.4056 28.696 59.7736 28.344C60.1416 27.992 60.4616 27.52 60.7336 26.928L61.2136 27.12C61.0376 27.648 60.7496 28.16 60.3496 28.656C59.9496 29.152 59.4456 29.56 58.8376 29.88C58.2296 30.184 57.5256 30.336 56.7256 30.336C55.5736 30.336 54.5816 30.072 53.7496 29.544C52.9336 29.016 52.3016 28.288 51.8536 27.36C51.4216 26.416 51.2056 25.336 51.2056 24.12C51.2056 22.712 51.4296 21.504 51.8776 20.496C52.3256 19.472 52.9576 18.688 53.7736 18.144C54.5896 17.584 55.5416 17.304 56.6296 17.304ZM79.2588 30V29.52C79.8028 29.488 80.2108 29.424 80.4828 29.328C80.7708 29.232 80.9628 29.04 81.0588 28.752C81.1548 28.464 81.2028 28.032 81.2028 27.456V15.552C81.2028 14.96 81.1548 14.528 81.0588 14.256C80.9628 13.968 80.7708 13.776 80.4828 13.68C80.2108 13.568 79.8028 13.504 79.2588 13.488V13.008C79.6268 13.024 80.0908 13.04 80.6508 13.056C81.2108 13.072 81.7628 13.08 82.3068 13.08C82.9308 13.08 83.5148 13.072 84.0588 13.056C84.6028 13.04 85.0428 13.024 85.3788 13.008V13.488C84.8348 13.504 84.4188 13.568 84.1308 13.68C83.8588 13.776 83.6748 13.968 83.5788 14.256C83.4828 14.528 83.4348 14.96 83.4348 15.552V27.456C83.4348 28.032 83.4828 28.464 83.5788 28.752C83.6748 29.04 83.8588 29.232 84.1308 29.328C84.4188 29.424 84.8348 29.488 85.3788 29.52V30C85.0428 29.968 84.6028 29.952 84.0588 29.952C83.5148 29.936 82.9308 29.928 82.3068 29.928C81.7628 29.928 81.2108 29.936 80.6508 29.952C80.0908 29.952 79.6268 29.968 79.2588 30ZM69.2268 30V29.52C69.7708 29.488 70.1788 29.424 70.4508 29.328C70.7388 29.232 70.9308 29.04 71.0268 28.752C71.1228 28.464 71.1708 28.032 71.1708 27.456V15.552C71.1708 14.96 71.1228 14.528 71.0268 14.256C70.9308 13.968 70.7388 13.776 70.4508 13.68C70.1788 13.568 69.7708 13.504 69.2268 13.488V13.008C69.5628 13.024 70.0028 13.04 70.5468 13.056C71.0908 13.072 71.6748 13.08 72.2988 13.08C72.8588 13.08 73.4108 13.072 73.9548 13.056C74.5148 13.04 74.9788 13.024 75.3468 13.008V13.488C74.8028 13.504 74.3868 13.568 74.0988 13.68C73.8268 13.776 73.6428 13.968 73.5468 14.256C73.4508 14.528 73.4028 14.96 73.4028 15.552V27.456C73.4028 28.032 73.4508 28.464 73.5468 28.752C73.6428 29.04 73.8268 29.232 74.0988 29.328C74.3868 29.424 74.8028 29.488 75.3468 29.52V30C74.9788 29.968 74.5148 29.952 73.9548 29.952C73.4108 29.936 72.8588 29.928 72.2988 29.928C71.6748 29.928 71.0908 29.936 70.5468 29.952C70.0028 29.952 69.5628 29.968 69.2268 30ZM72.5628 21.696V21.216H82.0428V21.696H72.5628ZM90.3696 30.168C89.7136 30.168 89.1456 30.048 88.6656 29.808C88.1856 29.552 87.8176 29.2 87.5616 28.752C87.3216 28.304 87.2016 27.784 87.2016 27.192C87.2016 26.488 87.3616 25.912 87.6816 25.464C88.0176 25.016 88.4416 24.656 88.9536 24.384C89.4656 24.112 90.0016 23.888 90.5616 23.712C91.1376 23.52 91.6816 23.344 92.1936 23.184C92.7056 23.008 93.1216 22.808 93.4416 22.584C93.7776 22.36 93.9456 22.064 93.9456 21.696V20.208C93.9456 19.536 93.8416 19.024 93.6336 18.672C93.4416 18.32 93.1776 18.088 92.8416 17.976C92.5056 17.848 92.1296 17.784 91.7136 17.784C91.3136 17.784 90.8816 17.84 90.4176 17.952C89.9696 18.064 89.6096 18.296 89.3376 18.648C89.6416 18.712 89.9056 18.872 90.1296 19.128C90.3536 19.384 90.4656 19.712 90.4656 20.112C90.4656 20.512 90.3376 20.832 90.0816 21.072C89.8256 21.296 89.4976 21.408 89.0976 21.408C88.6336 21.408 88.2896 21.264 88.0656 20.976C87.8576 20.672 87.7536 20.336 87.7536 19.968C87.7536 19.552 87.8576 19.216 88.0656 18.96C88.2736 18.704 88.5376 18.464 88.8576 18.24C89.2256 17.984 89.6976 17.768 90.2736 17.592C90.8656 17.4 91.5296 17.304 92.2656 17.304C92.9216 17.304 93.4816 17.384 93.9456 17.544C94.4096 17.688 94.7936 17.904 95.0976 18.192C95.5136 18.576 95.7856 19.048 95.9136 19.608C96.0416 20.152 96.1056 20.808 96.1056 21.576V28.248C96.1056 28.648 96.1616 28.936 96.2736 29.112C96.4016 29.288 96.5936 29.376 96.8496 29.376C97.0256 29.376 97.1936 29.336 97.3536 29.256C97.5136 29.176 97.7056 29.048 97.9296 28.872L98.1936 29.28C97.8576 29.536 97.5376 29.752 97.2336 29.928C96.9296 30.088 96.5216 30.168 96.0096 30.168C95.5456 30.168 95.1616 30.088 94.8576 29.928C94.5536 29.768 94.3216 29.536 94.1616 29.232C94.0176 28.912 93.9456 28.512 93.9456 28.032C93.5136 28.752 92.9936 29.288 92.3856 29.64C91.7936 29.992 91.1216 30.168 90.3696 30.168ZM91.2336 29.208C91.7616 29.208 92.2496 29.056 92.6976 28.752C93.1616 28.448 93.5776 27.992 93.9456 27.384V22.68C93.7536 22.952 93.4736 23.184 93.1056 23.376C92.7376 23.552 92.3376 23.736 91.9056 23.928C91.4736 24.104 91.0576 24.32 90.6576 24.576C90.2736 24.816 89.9536 25.136 89.6976 25.536C89.4416 25.936 89.3136 26.456 89.3136 27.096C89.3136 27.736 89.4816 28.248 89.8176 28.632C90.1696 29.016 90.6416 29.208 91.2336 29.208ZM109.766 17.64V18.12C109.462 18.152 109.182 18.288 108.926 18.528C108.67 18.768 108.43 19.192 108.206 19.8L104.27 30.12C104.206 30.12 104.142 30.12 104.078 30.12C104.014 30.12 103.942 30.12 103.862 30.12L99.4456 19.488C99.1896 18.864 98.9336 18.488 98.6776 18.36C98.4376 18.216 98.2296 18.144 98.0536 18.144V17.64C98.3736 17.656 98.7016 17.68 99.0376 17.712C99.3896 17.728 99.7656 17.736 100.166 17.736C100.662 17.736 101.182 17.728 101.726 17.712C102.286 17.696 102.806 17.672 103.286 17.64V18.144C102.886 18.144 102.526 18.176 102.206 18.24C101.902 18.288 101.702 18.44 101.606 18.696C101.526 18.952 101.606 19.392 101.846 20.016L104.846 27.432L104.702 27.552L107.438 20.376C107.646 19.848 107.726 19.432 107.678 19.128C107.646 18.808 107.486 18.568 107.198 18.408C106.926 18.248 106.502 18.152 105.926 18.12V17.64C106.214 17.656 106.462 17.672 106.67 17.688C106.878 17.688 107.078 17.696 107.27 17.712C107.478 17.712 107.702 17.712 107.942 17.712C108.31 17.712 108.638 17.704 108.926 17.688C109.23 17.672 109.51 17.656 109.766 17.64ZM116.161 17.304C117.569 17.304 118.665 17.736 119.449 18.6C120.249 19.448 120.649 20.776 120.649 22.584H112.177L112.153 22.128H118.345C118.377 21.344 118.313 20.624 118.153 19.968C117.993 19.296 117.737 18.76 117.385 18.36C117.049 17.96 116.609 17.76 116.065 17.76C115.329 17.76 114.673 18.128 114.097 18.864C113.537 19.6 113.201 20.768 113.089 22.368L113.161 22.464C113.129 22.704 113.105 22.968 113.089 23.256C113.073 23.544 113.065 23.832 113.065 24.12C113.065 25.208 113.241 26.144 113.593 26.928C113.945 27.712 114.401 28.312 114.961 28.728C115.537 29.128 116.129 29.328 116.737 29.328C117.217 29.328 117.673 29.256 118.105 29.112C118.537 28.952 118.937 28.696 119.305 28.344C119.673 27.992 119.993 27.52 120.265 26.928L120.745 27.12C120.569 27.648 120.281 28.16 119.881 28.656C119.481 29.152 118.977 29.56 118.369 29.88C117.761 30.184 117.057 30.336 116.257 30.336C115.105 30.336 114.113 30.072 113.281 29.544C112.465 29.016 111.833 28.288 111.385 27.36C110.953 26.416 110.737 25.336 110.737 24.12C110.737 22.712 110.961 21.504 111.409 20.496C111.857 19.472 112.489 18.688 113.305 18.144C114.121 17.584 115.073 17.304 116.161 17.304ZM130.533 17.304C131.141 17.304 131.645 17.384 132.045 17.544C132.461 17.704 132.805 17.928 133.077 18.216C133.381 18.536 133.597 18.936 133.725 19.416C133.853 19.896 133.917 20.544 133.917 21.36V27.768C133.917 28.44 134.053 28.896 134.325 29.136C134.613 29.376 135.085 29.496 135.741 29.496V30C135.469 29.984 135.053 29.968 134.493 29.952C133.933 29.92 133.389 29.904 132.861 29.904C132.333 29.904 131.813 29.92 131.301 29.952C130.805 29.968 130.429 29.984 130.173 30V29.496C130.749 29.496 131.157 29.376 131.397 29.136C131.637 28.896 131.757 28.44 131.757 27.768V20.832C131.757 20.336 131.717 19.88 131.637 19.464C131.557 19.048 131.373 18.712 131.085 18.456C130.813 18.2 130.389 18.072 129.813 18.072C129.141 18.072 128.549 18.264 128.037 18.648C127.541 19.032 127.149 19.56 126.861 20.232C126.589 20.888 126.453 21.624 126.453 22.44V27.768C126.453 28.44 126.573 28.896 126.813 29.136C127.053 29.376 127.461 29.496 128.037 29.496V30C127.781 29.984 127.397 29.968 126.885 29.952C126.389 29.92 125.877 29.904 125.349 29.904C124.821 29.904 124.277 29.92 123.717 29.952C123.157 29.968 122.741 29.984 122.469 30V29.496C123.125 29.496 123.589 29.376 123.861 29.136C124.149 28.896 124.293 28.44 124.293 27.768V20.256C124.293 19.536 124.165 19.008 123.909 18.672C123.653 18.32 123.173 18.144 122.469 18.144V17.64C122.981 17.688 123.477 17.712 123.957 17.712C124.421 17.712 124.861 17.688 125.277 17.64C125.709 17.576 126.101 17.488 126.453 17.376V20.208C126.869 19.12 127.445 18.368 128.181 17.952C128.933 17.52 129.717 17.304 130.533 17.304ZM153.11 30V29.52C153.654 29.488 154.062 29.424 154.334 29.328C154.622 29.232 154.814 29.04 154.91 28.752C155.006 28.464 155.054 28.032 155.054 27.456V15.552C155.054 14.96 155.006 14.528 154.91 14.256C154.814 13.968 154.622 13.776 154.334 13.68C154.062 13.568 153.654 13.504 153.11 13.488V13.008C153.478 13.024 153.942 13.04 154.502 13.056C155.062 13.072 155.614 13.08 156.158 13.08C156.782 13.08 157.366 13.072 157.91 13.056C158.454 13.04 158.894 13.024 159.23 13.008V13.488C158.686 13.504 158.27 13.568 157.982 13.68C157.71 13.776 157.526 13.968 157.43 14.256C157.334 14.528 157.286 14.96 157.286 15.552V27.456C157.286 28.032 157.334 28.464 157.43 28.752C157.526 29.04 157.71 29.232 157.982 29.328C158.27 29.424 158.686 29.488 159.23 29.52V30C158.894 29.968 158.454 29.952 157.91 29.952C157.366 29.936 156.782 29.928 156.158 29.928C155.614 29.928 155.062 29.936 154.502 29.952C153.942 29.952 153.478 29.968 153.11 30ZM143.078 30V29.52C143.622 29.488 144.03 29.424 144.302 29.328C144.59 29.232 144.782 29.04 144.878 28.752C144.974 28.464 145.022 28.032 145.022 27.456V15.552C145.022 14.96 144.974 14.528 144.878 14.256C144.782 13.968 144.59 13.776 144.302 13.68C144.03 13.568 143.622 13.504 143.078 13.488V13.008C143.414 13.024 143.854 13.04 144.398 13.056C144.942 13.072 145.526 13.08 146.15 13.08C146.71 13.08 147.262 13.072 147.806 13.056C148.366 13.04 148.83 13.024 149.198 13.008V13.488C148.654 13.504 148.238 13.568 147.95 13.68C147.678 13.776 147.494 13.968 147.398 14.256C147.302 14.528 147.254 14.96 147.254 15.552V27.456C147.254 28.032 147.302 28.464 147.398 28.752C147.494 29.04 147.678 29.232 147.95 29.328C148.238 29.424 148.654 29.488 149.198 29.52V30C148.83 29.968 148.366 29.952 147.806 29.952C147.262 29.936 146.71 29.928 146.15 29.928C145.526 29.928 144.942 29.936 144.398 29.952C143.854 29.952 143.414 29.968 143.078 30ZM146.414 21.696V21.216H155.894V21.696H146.414ZM166.389 17.304C167.413 17.304 168.333 17.528 169.149 17.976C169.965 18.424 170.613 19.128 171.093 20.088C171.589 21.048 171.837 22.296 171.837 23.832C171.837 25.368 171.589 26.616 171.093 27.576C170.613 28.52 169.965 29.216 169.149 29.664C168.333 30.112 167.413 30.336 166.389 30.336C165.381 30.336 164.461 30.112 163.629 29.664C162.813 29.216 162.157 28.52 161.661 27.576C161.181 26.616 160.941 25.368 160.941 23.832C160.941 22.296 161.181 21.048 161.661 20.088C162.157 19.128 162.813 18.424 163.629 17.976C164.461 17.528 165.381 17.304 166.389 17.304ZM166.389 17.784C165.477 17.784 164.725 18.256 164.133 19.2C163.557 20.144 163.269 21.688 163.269 23.832C163.269 25.976 163.557 27.52 164.133 28.464C164.725 29.392 165.477 29.856 166.389 29.856C167.301 29.856 168.045 29.392 168.621 28.464C169.213 27.52 169.509 25.976 169.509 23.832C169.509 21.688 169.213 20.144 168.621 19.2C168.045 18.256 167.301 17.784 166.389 17.784ZM177.521 13.656V17.664H181.073V18.144H177.521V27.432C177.521 28.184 177.657 28.712 177.929 29.016C178.201 29.32 178.577 29.472 179.057 29.472C179.537 29.472 179.953 29.28 180.305 28.896C180.657 28.496 180.961 27.832 181.217 26.904L181.697 27.024C181.537 27.952 181.217 28.736 180.737 29.376C180.273 30.016 179.553 30.336 178.577 30.336C178.033 30.336 177.585 30.264 177.233 30.12C176.881 29.992 176.569 29.8 176.297 29.544C175.945 29.176 175.697 28.736 175.553 28.224C175.425 27.712 175.361 27.032 175.361 26.184V18.144H173.057V17.664H175.361V13.992C175.761 13.976 176.145 13.944 176.513 13.896C176.881 13.848 177.217 13.768 177.521 13.656ZM187.973 17.304C189.381 17.304 190.477 17.736 191.261 18.6C192.061 19.448 192.461 20.776 192.461 22.584H183.989L183.965 22.128H190.157C190.189 21.344 190.125 20.624 189.965 19.968C189.805 19.296 189.549 18.76 189.197 18.36C188.861 17.96 188.421 17.76 187.877 17.76C187.141 17.76 186.485 18.128 185.909 18.864C185.349 19.6 185.013 20.768 184.901 22.368L184.973 22.464C184.941 22.704 184.917 22.968 184.901 23.256C184.885 23.544 184.877 23.832 184.877 24.12C184.877 25.208 185.053 26.144 185.405 26.928C185.757 27.712 186.213 28.312 186.773 28.728C187.349 29.128 187.941 29.328 188.549 29.328C189.029 29.328 189.485 29.256 189.917 29.112C190.349 28.952 190.749 28.696 191.117 28.344C191.485 27.992 191.805 27.52 192.077 26.928L192.557 27.12C192.381 27.648 192.093 28.16 191.693 28.656C191.293 29.152 190.789 29.56 190.181 29.88C189.573 30.184 188.869 30.336 188.069 30.336C186.917 30.336 185.925 30.072 185.093 29.544C184.277 29.016 183.645 28.288 183.197 27.36C182.765 26.416 182.549 25.336 182.549 24.12C182.549 22.712 182.773 21.504 183.221 20.496C183.669 19.472 184.301 18.688 185.117 18.144C185.933 17.584 186.885 17.304 187.973 17.304ZM198.098 11.184V27.768C198.098 28.44 198.234 28.896 198.506 29.136C198.794 29.376 199.266 29.496 199.922 29.496V30C199.65 29.984 199.234 29.968 198.674 29.952C198.13 29.92 197.578 29.904 197.018 29.904C196.474 29.904 195.922 29.92 195.362 29.952C194.802 29.968 194.386 29.984 194.114 30V29.496C194.77 29.496 195.234 29.376 195.506 29.136C195.794 28.896 195.938 28.44 195.938 27.768V14.064C195.938 13.344 195.81 12.816 195.554 12.48C195.298 12.128 194.818 11.952 194.114 11.952V11.448C194.626 11.496 195.122 11.52 195.602 11.52C196.066 11.52 196.506 11.496 196.922 11.448C197.354 11.384 197.746 11.296 198.098 11.184ZM213.798 13.152C214.406 13.152 214.91 13.224 215.31 13.368C215.71 13.496 216.038 13.664 216.294 13.872C216.502 14.032 216.67 14.208 216.798 14.4C216.926 14.592 217.022 14.784 217.086 14.976C217.15 15.168 217.182 15.352 217.182 15.528C217.182 15.928 217.038 16.24 216.75 16.464C216.478 16.688 216.174 16.8 215.838 16.8C215.518 16.8 215.23 16.696 214.974 16.488C214.718 16.28 214.59 15.984 214.59 15.6C214.59 15.248 214.71 14.952 214.95 14.712C215.19 14.456 215.494 14.312 215.862 14.28C215.798 14.072 215.598 13.896 215.262 13.752C214.942 13.592 214.534 13.512 214.038 13.512C213.222 13.512 212.55 13.76 212.022 14.256C211.51 14.736 211.254 15.44 211.254 16.368C211.254 16.816 211.334 17.272 211.494 17.736C211.67 18.2 211.998 18.656 212.478 19.104C212.75 19.056 213.03 19.024 213.318 19.008C213.606 18.976 213.822 18.96 213.966 18.96C214.254 18.96 214.486 19.008 214.662 19.104C214.838 19.2 214.926 19.336 214.926 19.512C214.926 19.656 214.862 19.768 214.734 19.848C214.622 19.928 214.462 19.968 214.254 19.968C213.95 19.968 213.63 19.904 213.294 19.776C212.958 19.632 212.694 19.52 212.502 19.44C211.574 19.712 210.822 20.16 210.246 20.784C209.67 21.392 209.382 22.256 209.382 23.376C209.382 24.48 209.67 25.416 210.246 26.184C210.822 26.952 211.59 27.544 212.55 27.96C213.526 28.36 214.614 28.56 215.814 28.56C216.662 28.56 217.462 28.464 218.214 28.272C218.982 28.064 219.654 27.768 220.23 27.384C220.822 27 221.286 26.544 221.622 26.016C221.958 25.472 222.126 24.856 222.126 24.168C222.126 23.864 222.062 23.48 221.934 23.016C221.806 22.536 221.542 22.072 221.142 21.624C220.742 21.16 220.126 20.8 219.294 20.544L219.582 20.304C220.75 20.656 221.582 21.224 222.078 22.008C222.574 22.776 222.822 23.64 222.822 24.6C222.822 25.56 222.534 26.48 221.958 27.36C221.382 28.24 220.55 28.96 219.462 29.52C218.374 30.064 217.054 30.336 215.502 30.336C214.462 30.336 213.47 30.2 212.526 29.928C211.598 29.656 210.774 29.264 210.054 28.752C209.334 28.224 208.766 27.592 208.35 26.856C207.934 26.12 207.726 25.288 207.726 24.36C207.726 23.496 207.894 22.76 208.23 22.152C208.566 21.528 208.982 21.016 209.478 20.616C209.974 20.216 210.47 19.912 210.966 19.704C211.462 19.48 211.862 19.328 212.166 19.248C211.638 19.008 211.19 18.728 210.822 18.408C210.47 18.072 210.198 17.712 210.006 17.328C209.83 16.928 209.742 16.536 209.742 16.152C209.742 15.768 209.83 15.4 210.006 15.048C210.182 14.68 210.438 14.352 210.774 14.064C211.11 13.776 211.526 13.552 212.022 13.392C212.534 13.232 213.126 13.152 213.798 13.152ZM222.534 12.672C223.526 12.672 224.358 12.96 225.03 13.536C225.702 14.096 226.038 14.888 226.038 15.912C226.038 16.456 225.934 16.944 225.726 17.376C225.534 17.792 225.262 18.16 224.91 18.48C224.574 18.8 224.19 19.064 223.758 19.272C223.39 19.448 222.902 19.64 222.294 19.848C221.702 20.056 221.062 20.264 220.374 20.472C219.702 20.68 219.054 20.888 218.43 21.096C217.822 21.288 217.326 21.456 216.942 21.6C216.35 21.824 215.846 22.104 215.43 22.44C215.03 22.76 214.83 23.176 214.83 23.688C214.83 24.104 214.95 24.456 215.19 24.744C215.43 25.032 215.718 25.248 216.054 25.392C216.406 25.536 216.734 25.608 217.038 25.608C217.182 25.608 217.358 25.592 217.566 25.56C217.79 25.512 217.99 25.448 218.166 25.368C218.342 25.288 218.446 25.192 218.478 25.08C218.222 25.032 217.966 24.92 217.71 24.744C217.47 24.552 217.35 24.256 217.35 23.856C217.35 23.472 217.478 23.168 217.734 22.944C217.99 22.72 218.302 22.608 218.67 22.608C219.054 22.608 219.358 22.728 219.582 22.968C219.822 23.208 219.942 23.52 219.942 23.904C219.942 24.352 219.79 24.736 219.486 25.056C219.198 25.36 218.83 25.592 218.382 25.752C217.95 25.896 217.518 25.968 217.086 25.968C216.638 25.968 216.182 25.872 215.718 25.68C215.254 25.488 214.87 25.192 214.566 24.792C214.262 24.376 214.11 23.832 214.11 23.16C214.11 22.6 214.23 22.104 214.47 21.672C214.726 21.24 215.102 20.856 215.598 20.52C216.094 20.184 216.702 19.896 217.422 19.656C217.902 19.496 218.486 19.32 219.174 19.128C219.862 18.936 220.566 18.728 221.286 18.504C222.022 18.28 222.686 18.032 223.278 17.76C224.078 17.392 224.622 17.016 224.91 16.632C225.198 16.248 225.342 15.856 225.342 15.456C225.342 14.992 225.214 14.584 224.958 14.232C224.702 13.864 224.358 13.576 223.926 13.368C223.51 13.144 223.054 13.032 222.558 13.032C222.366 13.032 222.206 13.048 222.078 13.08C221.95 13.112 221.87 13.168 221.838 13.248C222.062 13.36 222.23 13.52 222.342 13.728C222.454 13.936 222.51 14.144 222.51 14.352C222.51 14.688 222.374 14.968 222.102 15.192C221.846 15.416 221.534 15.528 221.166 15.528C220.862 15.528 220.574 15.432 220.302 15.24C220.03 15.032 219.894 14.728 219.894 14.328C219.894 13.912 220.03 13.584 220.302 13.344C220.59 13.104 220.934 12.936 221.334 12.84C221.75 12.728 222.15 12.672 222.534 12.672ZM233.5 13.008C233.836 13.024 234.276 13.04 234.82 13.056C235.364 13.072 235.9 13.08 236.428 13.08C237.18 13.08 237.9 13.072 238.588 13.056C239.276 13.04 239.764 13.032 240.052 13.032C241.348 13.032 242.42 13.216 243.268 13.584C244.132 13.952 244.772 14.456 245.188 15.096C245.62 15.72 245.836 16.424 245.836 17.208C245.836 17.688 245.74 18.2 245.548 18.744C245.356 19.288 245.02 19.8 244.54 20.28C244.076 20.76 243.436 21.16 242.62 21.48C241.804 21.784 240.772 21.936 239.524 21.936H237.22V21.456H239.284C240.42 21.456 241.284 21.28 241.876 20.928C242.484 20.56 242.892 20.08 243.1 19.488C243.324 18.88 243.436 18.208 243.436 17.472C243.436 16.208 243.132 15.232 242.524 14.544C241.932 13.84 240.908 13.488 239.452 13.488C238.716 13.488 238.236 13.624 238.012 13.896C237.788 14.168 237.676 14.72 237.676 15.552V27.456C237.676 28.032 237.724 28.464 237.82 28.752C237.916 29.04 238.1 29.232 238.372 29.328C238.66 29.424 239.076 29.488 239.62 29.52V30C239.252 29.968 238.788 29.952 238.228 29.952C237.684 29.936 237.132 29.928 236.572 29.928C235.948 29.928 235.364 29.936 234.82 29.952C234.276 29.952 233.836 29.968 233.5 30V29.52C234.044 29.488 234.452 29.424 234.724 29.328C235.012 29.232 235.204 29.04 235.3 28.752C235.396 28.464 235.444 28.032 235.444 27.456V15.552C235.444 14.96 235.396 14.528 235.3 14.256C235.204 13.968 235.012 13.776 234.724 13.68C234.452 13.568 234.044 13.504 233.5 13.488V13.008ZM237.316 21.528C238.18 21.56 238.86 21.6 239.356 21.648C239.852 21.68 240.252 21.712 240.556 21.744C240.876 21.776 241.18 21.816 241.468 21.864C242.54 22.04 243.308 22.368 243.772 22.848C244.252 23.312 244.604 24.04 244.828 25.032L245.428 27.48C245.588 28.184 245.748 28.696 245.908 29.016C246.084 29.32 246.348 29.464 246.7 29.448C246.972 29.432 247.196 29.344 247.372 29.184C247.564 29.024 247.764 28.808 247.972 28.536L248.332 28.8C247.996 29.296 247.644 29.68 247.276 29.952C246.924 30.208 246.42 30.336 245.764 30.336C245.172 30.336 244.652 30.16 244.204 29.808C243.756 29.456 243.42 28.768 243.196 27.744L242.668 25.344C242.524 24.656 242.356 24.064 242.164 23.568C241.988 23.056 241.732 22.656 241.396 22.368C241.076 22.08 240.596 21.936 239.956 21.936H237.364L237.316 21.528ZM254.583 17.304C255.991 17.304 257.087 17.736 257.871 18.6C258.671 19.448 259.071 20.776 259.071 22.584H250.599L250.575 22.128H256.767C256.799 21.344 256.735 20.624 256.575 19.968C256.415 19.296 256.159 18.76 255.807 18.36C255.471 17.96 255.031 17.76 254.487 17.76C253.751 17.76 253.095 18.128 252.519 18.864C251.959 19.6 251.623 20.768 251.511 22.368L251.583 22.464C251.551 22.704 251.527 22.968 251.511 23.256C251.495 23.544 251.487 23.832 251.487 24.12C251.487 25.208 251.663 26.144 252.015 26.928C252.367 27.712 252.823 28.312 253.383 28.728C253.959 29.128 254.551 29.328 255.159 29.328C255.639 29.328 256.095 29.256 256.527 29.112C256.959 28.952 257.359 28.696 257.727 28.344C258.095 27.992 258.415 27.52 258.687 26.928L259.167 27.12C258.991 27.648 258.703 28.16 258.303 28.656C257.903 29.152 257.399 29.56 256.791 29.88C256.183 30.184 255.479 30.336 254.679 30.336C253.527 30.336 252.535 30.072 251.703 29.544C250.887 29.016 250.255 28.288 249.807 27.36C249.375 26.416 249.159 25.336 249.159 24.12C249.159 22.712 249.383 21.504 249.831 20.496C250.279 19.472 250.911 18.688 251.727 18.144C252.543 17.584 253.495 17.304 254.583 17.304ZM265.187 17.304C265.827 17.304 266.371 17.408 266.819 17.616C267.267 17.824 267.595 18.016 267.803 18.192C268.331 18.624 268.651 18.336 268.763 17.328H269.315C269.283 17.776 269.259 18.312 269.243 18.936C269.227 19.544 269.219 20.368 269.219 21.408H268.667C268.571 20.816 268.403 20.24 268.163 19.68C267.939 19.12 267.603 18.664 267.155 18.312C266.707 17.944 266.123 17.76 265.403 17.76C264.843 17.76 264.371 17.92 263.987 18.24C263.619 18.544 263.435 19 263.435 19.608C263.435 20.088 263.579 20.504 263.867 20.856C264.155 21.192 264.531 21.512 264.995 21.816C265.459 22.104 265.963 22.424 266.507 22.776C267.115 23.16 267.667 23.552 268.163 23.952C268.659 24.352 269.051 24.792 269.339 25.272C269.643 25.752 269.795 26.32 269.795 26.976C269.795 27.712 269.603 28.328 269.219 28.824C268.835 29.32 268.331 29.696 267.707 29.952C267.099 30.208 266.427 30.336 265.691 30.336C265.339 30.336 265.003 30.304 264.683 30.24C264.379 30.192 264.083 30.112 263.795 30C263.635 29.92 263.467 29.824 263.291 29.712C263.131 29.6 262.971 29.48 262.811 29.352C262.651 29.224 262.507 29.232 262.379 29.376C262.251 29.504 262.155 29.768 262.091 30.168H261.539C261.571 29.656 261.595 29.032 261.611 28.296C261.627 27.56 261.635 26.584 261.635 25.368H262.187C262.299 26.264 262.459 27.048 262.667 27.72C262.875 28.392 263.203 28.92 263.651 29.304C264.099 29.672 264.723 29.856 265.523 29.856C265.843 29.856 266.163 29.784 266.483 29.64C266.819 29.496 267.099 29.256 267.323 28.92C267.547 28.584 267.659 28.136 267.659 27.576C267.659 26.872 267.403 26.296 266.891 25.848C266.379 25.4 265.731 24.928 264.947 24.432C264.371 24.064 263.827 23.696 263.315 23.328C262.819 22.96 262.411 22.544 262.091 22.08C261.787 21.616 261.635 21.056 261.635 20.4C261.635 19.68 261.795 19.096 262.115 18.648C262.451 18.184 262.891 17.848 263.435 17.64C263.979 17.416 264.563 17.304 265.187 17.304ZM277.506 17.304C278.53 17.304 279.45 17.528 280.266 17.976C281.082 18.424 281.73 19.128 282.21 20.088C282.706 21.048 282.954 22.296 282.954 23.832C282.954 25.368 282.706 26.616 282.21 27.576C281.73 28.52 281.082 29.216 280.266 29.664C279.45 30.112 278.53 30.336 277.506 30.336C276.498 30.336 275.578 30.112 274.746 29.664C273.93 29.216 273.274 28.52 272.778 27.576C272.298 26.616 272.058 25.368 272.058 23.832C272.058 22.296 272.298 21.048 272.778 20.088C273.274 19.128 273.93 18.424 274.746 17.976C275.578 17.528 276.498 17.304 277.506 17.304ZM277.506 17.784C276.594 17.784 275.842 18.256 275.25 19.2C274.674 20.144 274.386 21.688 274.386 23.832C274.386 25.976 274.674 27.52 275.25 28.464C275.842 29.392 276.594 29.856 277.506 29.856C278.418 29.856 279.162 29.392 279.738 28.464C280.33 27.52 280.626 25.976 280.626 23.832C280.626 21.688 280.33 20.144 279.738 19.2C279.162 18.256 278.418 17.784 277.506 17.784ZM292.238 17.304C292.67 17.304 293.046 17.392 293.366 17.568C293.702 17.744 293.958 17.976 294.134 18.264C294.326 18.536 294.422 18.848 294.422 19.2C294.422 19.6 294.294 19.952 294.038 20.256C293.798 20.56 293.47 20.712 293.054 20.712C292.718 20.712 292.422 20.608 292.166 20.4C291.91 20.176 291.782 19.864 291.782 19.464C291.782 19.16 291.862 18.904 292.022 18.696C292.198 18.472 292.39 18.296 292.598 18.168C292.486 18.008 292.318 17.928 292.094 17.928C291.598 17.928 291.142 18.08 290.726 18.384C290.31 18.672 289.958 19.048 289.67 19.512C289.382 19.976 289.158 20.472 288.998 21C288.838 21.512 288.758 21.992 288.758 22.44V27.528C288.758 28.312 288.982 28.84 289.43 29.112C289.894 29.368 290.518 29.496 291.302 29.496V30C290.934 29.984 290.414 29.968 289.742 29.952C289.07 29.92 288.358 29.904 287.606 29.904C287.062 29.904 286.518 29.92 285.974 29.952C285.446 29.968 285.046 29.984 284.774 30V29.496C285.43 29.496 285.894 29.376 286.166 29.136C286.454 28.896 286.598 28.44 286.598 27.768V20.256C286.598 19.536 286.47 19.008 286.214 18.672C285.958 18.32 285.478 18.144 284.774 18.144V17.64C285.286 17.688 285.782 17.712 286.262 17.712C286.726 17.712 287.166 17.688 287.582 17.64C288.014 17.576 288.406 17.488 288.758 17.376V20.376C288.934 19.912 289.182 19.448 289.502 18.984C289.838 18.504 290.238 18.104 290.702 17.784C291.166 17.464 291.678 17.304 292.238 17.304ZM299.326 13.656V17.664H302.878V18.144H299.326V27.432C299.326 28.184 299.462 28.712 299.734 29.016C300.006 29.32 300.382 29.472 300.862 29.472C301.342 29.472 301.758 29.28 302.11 28.896C302.462 28.496 302.766 27.832 303.022 26.904L303.502 27.024C303.342 27.952 303.022 28.736 302.542 29.376C302.078 30.016 301.358 30.336 300.382 30.336C299.838 30.336 299.39 30.264 299.038 30.12C298.686 29.992 298.374 29.8 298.102 29.544C297.75 29.176 297.502 28.736 297.358 28.224C297.23 27.712 297.166 27.032 297.166 26.184V18.144H294.862V17.664H297.166V13.992C297.566 13.976 297.95 13.944 298.318 13.896C298.686 13.848 299.022 13.768 299.326 13.656Z" fill="#FBFCF8"/>
</svg>
