<svg width="205" height="40" viewBox="0 0 205 40" fill="none" xmlns="http://www.w3.org/2000/svg">
<line x1="1" y1="36" x2="1" y2="4" stroke="#FBFCF8" stroke-width="2"/>
<path d="M13.752 14.672V14.992C13.3893 15.0027 13.112 15.0453 12.92 15.12C12.7387 15.184 12.616 15.312 12.552 15.504C12.488 15.6853 12.456 15.9733 12.456 16.368V24.304C12.456 24.688 12.488 24.976 12.552 25.168C12.616 25.36 12.7387 25.488 12.92 25.552C13.112 25.6053 13.3893 25.632 13.752 25.632H14.92C15.4213 25.632 15.8267 25.5787 16.136 25.472C16.456 25.3653 16.7067 25.2 16.888 24.976C17.08 24.7413 17.224 24.432 17.32 24.048C17.416 23.664 17.4907 23.1947 17.544 22.64H17.912C17.88 22.9707 17.864 23.408 17.864 23.952C17.864 24.1547 17.8693 24.448 17.88 24.832C17.9013 25.2053 17.9333 25.5947 17.976 26C17.432 25.9787 16.8187 25.968 16.136 25.968C15.4533 25.9573 14.8453 25.952 14.312 25.952C14.0773 25.952 13.7733 25.952 13.4 25.952C13.0373 25.952 12.6427 25.9573 12.216 25.968C11.7893 25.968 11.3573 25.9733 10.92 25.984C10.4827 25.984 10.0667 25.9893 9.672 26V25.68C10.0347 25.6587 10.3067 25.616 10.488 25.552C10.68 25.488 10.808 25.36 10.872 25.168C10.936 24.976 10.968 24.688 10.968 24.304V16.368C10.968 15.9733 10.936 15.6853 10.872 15.504C10.808 15.312 10.68 15.184 10.488 15.12C10.3067 15.0453 10.0347 15.0027 9.672 14.992V14.672C9.896 14.6827 10.1893 14.6933 10.552 14.704C10.9147 14.7147 11.304 14.72 11.72 14.72C12.0933 14.72 12.4613 14.7147 12.824 14.704C13.1973 14.6933 13.5067 14.6827 13.752 14.672ZM26.1343 17.584V24.272C26.1343 24.752 26.2196 25.1093 26.3903 25.344C26.5716 25.568 26.8916 25.68 27.3503 25.68V26.016C27.0196 25.984 26.6889 25.968 26.3583 25.968C26.0489 25.968 25.7503 25.984 25.4623 26.016C25.1849 26.048 24.9289 26.1067 24.6943 26.192V24.304C24.4276 24.9973 24.0489 25.4933 23.5583 25.792C23.0783 26.08 22.5823 26.224 22.0703 26.224C21.6969 26.224 21.3716 26.1707 21.0943 26.064C20.8169 25.9573 20.5876 25.808 20.4062 25.616C20.2036 25.4027 20.0649 25.1253 19.9903 24.784C19.9156 24.4427 19.8783 24.0213 19.8783 23.52V19.504C19.8783 19.024 19.7929 18.672 19.6223 18.448C19.4516 18.2133 19.1316 18.096 18.6623 18.096V17.76C19.0036 17.792 19.3343 17.808 19.6543 17.808C19.9636 17.808 20.2569 17.792 20.5343 17.76C20.8223 17.7173 21.0836 17.6587 21.3183 17.584V23.872C21.3183 24.2027 21.3396 24.5067 21.3823 24.784C21.4249 25.0613 21.5316 25.2853 21.7023 25.456C21.8729 25.6267 22.1503 25.712 22.5343 25.712C22.9503 25.712 23.3183 25.584 23.6383 25.328C23.9689 25.072 24.2249 24.7253 24.4063 24.288C24.5983 23.8507 24.6943 23.36 24.6943 22.816V19.504C24.6943 19.024 24.6089 18.672 24.4383 18.448C24.2676 18.2133 23.9476 18.096 23.4783 18.096V17.76C23.8196 17.792 24.1503 17.808 24.4703 17.808C24.7796 17.808 25.0729 17.792 25.3503 17.76C25.6383 17.7173 25.8996 17.6587 26.1343 17.584ZM31.0951 17.76V18.096C30.8925 18.096 30.7218 18.144 30.5831 18.24C30.4445 18.336 30.4285 18.4693 30.5351 18.64L34.8071 24.864C34.9885 25.1307 35.1485 25.3227 35.2871 25.44C35.4258 25.5467 35.5965 25.6213 35.7991 25.664V26C35.6925 25.9893 35.5271 25.9787 35.3031 25.968C35.0898 25.9467 34.8765 25.936 34.6631 25.936C34.3325 25.936 33.9751 25.9467 33.5911 25.968C33.2178 25.9787 32.9458 25.9893 32.7751 26V25.664C32.9885 25.664 33.1645 25.616 33.3031 25.52C33.4418 25.4133 33.4525 25.28 33.3351 25.12L29.0631 18.896C28.8498 18.5867 28.6791 18.384 28.5511 18.288C28.4231 18.1813 28.2631 18.1173 28.0711 18.096V17.76C28.1778 17.7707 28.3431 17.7867 28.5671 17.808C28.7911 17.8187 29.0045 17.824 29.2071 17.824C29.5485 17.824 29.9058 17.8187 30.2791 17.808C30.6525 17.7867 30.9245 17.7707 31.0951 17.76ZM31.5271 21.824C31.5271 21.824 31.5378 21.8613 31.5591 21.936C31.5805 22 31.6018 22.0693 31.6231 22.144C31.6551 22.2187 31.6711 22.256 31.6711 22.256L30.3431 23.984C30.0658 24.3467 29.9165 24.6507 29.8951 24.896C29.8845 25.1413 29.9858 25.328 30.1991 25.456C30.4125 25.5733 30.7058 25.648 31.0791 25.68V26C30.8978 25.9893 30.6951 25.984 30.4711 25.984C30.2471 25.9733 30.0285 25.968 29.8151 25.968C29.6125 25.9573 29.4258 25.952 29.2551 25.952C29.0098 25.952 28.7858 25.9573 28.5831 25.968C28.3911 25.968 28.2098 25.9787 28.0391 26V25.68C28.2418 25.6587 28.4498 25.568 28.6631 25.408C28.8871 25.2373 29.1485 24.9547 29.4471 24.56L31.5271 21.824ZM35.4791 17.76V18.08C35.2765 18.1013 35.0525 18.208 34.8071 18.4C34.5725 18.5813 34.3271 18.848 34.0711 19.2L32.2311 21.744C32.2311 21.744 32.2205 21.712 32.1991 21.648C32.1778 21.5733 32.1565 21.504 32.1351 21.44C32.1138 21.3653 32.1031 21.328 32.1031 21.328L33.3511 19.584C33.5858 19.2533 33.7351 18.9813 33.7991 18.768C33.8631 18.5547 33.8258 18.3947 33.6871 18.288C33.5591 18.1707 33.3031 18.1013 32.9191 18.08V17.76C33.1965 17.7707 33.4258 17.7813 33.6071 17.792C33.7991 17.8027 34.0178 17.808 34.2631 17.808C34.5085 17.808 34.7271 17.8027 34.9191 17.792C35.1218 17.7813 35.3085 17.7707 35.4791 17.76ZM40.0864 17.536C41.025 17.536 41.7557 17.824 42.2784 18.4C42.8117 18.9653 43.0784 19.8507 43.0784 21.056H37.4304L37.4144 20.752H41.5424C41.5637 20.2293 41.521 19.7493 41.4144 19.312C41.3077 18.864 41.137 18.5067 40.9024 18.24C40.6784 17.9733 40.385 17.84 40.0224 17.84C39.5317 17.84 39.0944 18.0853 38.7104 18.576C38.337 19.0667 38.113 19.8453 38.0384 20.912L38.0864 20.976C38.065 21.136 38.049 21.312 38.0384 21.504C38.0277 21.696 38.0224 21.888 38.0224 22.08C38.0224 22.8053 38.1397 23.4293 38.3744 23.952C38.609 24.4747 38.913 24.8747 39.2864 25.152C39.6704 25.4187 40.065 25.552 40.4704 25.552C40.7904 25.552 41.0944 25.504 41.3824 25.408C41.6704 25.3013 41.937 25.1307 42.1824 24.896C42.4277 24.6613 42.641 24.3467 42.8224 23.952L43.1424 24.08C43.025 24.432 42.833 24.7733 42.5664 25.104C42.2997 25.4347 41.9637 25.7067 41.5584 25.92C41.153 26.1227 40.6837 26.224 40.1504 26.224C39.3824 26.224 38.721 26.048 38.1664 25.696C37.6224 25.344 37.201 24.8587 36.9024 24.24C36.6144 23.6107 36.4704 22.8907 36.4704 22.08C36.4704 21.1413 36.6197 20.336 36.9184 19.664C37.217 18.9813 37.6384 18.4587 38.1824 18.096C38.7264 17.7227 39.361 17.536 40.0864 17.536ZM55.1725 26V25.68C55.5352 25.6587 55.8072 25.616 55.9885 25.552C56.1805 25.488 56.3085 25.36 56.3725 25.168C56.4365 24.976 56.4685 24.688 56.4685 24.304V16.368C56.4685 15.9733 56.4365 15.6853 56.3725 15.504C56.3085 15.312 56.1805 15.184 55.9885 15.12C55.8072 15.0453 55.5352 15.0027 55.1725 14.992V14.672C55.4178 14.6827 55.7272 14.6933 56.1005 14.704C56.4738 14.7147 56.8418 14.72 57.2045 14.72C57.6205 14.72 58.0098 14.7147 58.3725 14.704C58.7352 14.6933 59.0285 14.6827 59.2525 14.672V14.992C58.8898 15.0027 58.6125 15.0453 58.4205 15.12C58.2392 15.184 58.1165 15.312 58.0525 15.504C57.9885 15.6853 57.9565 15.9733 57.9565 16.368V24.304C57.9565 24.688 57.9885 24.976 58.0525 25.168C58.1165 25.36 58.2392 25.488 58.4205 25.552C58.6125 25.616 58.8898 25.6587 59.2525 25.68V26C59.0285 25.9787 58.7352 25.968 58.3725 25.968C58.0098 25.9573 57.6205 25.952 57.2045 25.952C56.8418 25.952 56.4738 25.9573 56.1005 25.968C55.7272 25.968 55.4178 25.9787 55.1725 26ZM48.4845 26V25.68C48.8472 25.6587 49.1192 25.616 49.3005 25.552C49.4925 25.488 49.6205 25.36 49.6845 25.168C49.7485 24.976 49.7805 24.688 49.7805 24.304V16.368C49.7805 15.9733 49.7485 15.6853 49.6845 15.504C49.6205 15.312 49.4925 15.184 49.3005 15.12C49.1192 15.0453 48.8472 15.0027 48.4845 14.992V14.672C48.7085 14.6827 49.0018 14.6933 49.3645 14.704C49.7272 14.7147 50.1165 14.72 50.5325 14.72C50.9058 14.72 51.2738 14.7147 51.6365 14.704C52.0098 14.6933 52.3192 14.6827 52.5645 14.672V14.992C52.2018 15.0027 51.9245 15.0453 51.7325 15.12C51.5512 15.184 51.4285 15.312 51.3645 15.504C51.3005 15.6853 51.2685 15.9733 51.2685 16.368V24.304C51.2685 24.688 51.3005 24.976 51.3645 25.168C51.4285 25.36 51.5512 25.488 51.7325 25.552C51.9245 25.616 52.2018 25.6587 52.5645 25.68V26C52.3192 25.9787 52.0098 25.968 51.6365 25.968C51.2738 25.9573 50.9058 25.952 50.5325 25.952C50.1165 25.952 49.7272 25.9573 49.3645 25.968C49.0018 25.968 48.7085 25.9787 48.4845 26ZM50.7085 20.464V20.144H57.0285V20.464H50.7085ZM62.5798 26.112C62.1424 26.112 61.7638 26.032 61.4438 25.872C61.1238 25.7013 60.8784 25.4667 60.7078 25.168C60.5478 24.8693 60.4678 24.5227 60.4678 24.128C60.4678 23.6587 60.5744 23.2747 60.7878 22.976C61.0118 22.6773 61.2944 22.4373 61.6358 22.256C61.9771 22.0747 62.3344 21.9253 62.7078 21.808C63.0918 21.68 63.4544 21.5627 63.7958 21.456C64.1371 21.3387 64.4144 21.2053 64.6278 21.056C64.8518 20.9067 64.9638 20.7093 64.9638 20.464V19.472C64.9638 19.024 64.8944 18.6827 64.7558 18.448C64.6278 18.2133 64.4518 18.0587 64.2278 17.984C64.0038 17.8987 63.7531 17.856 63.4758 17.856C63.2091 17.856 62.9211 17.8933 62.6118 17.968C62.3131 18.0427 62.0731 18.1973 61.8918 18.432C62.0944 18.4747 62.2704 18.5813 62.4198 18.752C62.5691 18.9227 62.6438 19.1413 62.6438 19.408C62.6438 19.6747 62.5584 19.888 62.3878 20.048C62.2171 20.1973 61.9984 20.272 61.7318 20.272C61.4224 20.272 61.1931 20.176 61.0438 19.984C60.9051 19.7813 60.8358 19.5573 60.8358 19.312C60.8358 19.0347 60.9051 18.8107 61.0438 18.64C61.1824 18.4693 61.3584 18.3093 61.5718 18.16C61.8171 17.9893 62.1318 17.8453 62.5158 17.728C62.9104 17.6 63.3531 17.536 63.8438 17.536C64.2811 17.536 64.6544 17.5893 64.9638 17.696C65.2731 17.792 65.5291 17.936 65.7318 18.128C66.0091 18.384 66.1904 18.6987 66.2758 19.072C66.3611 19.4347 66.4038 19.872 66.4038 20.384V24.832C66.4038 25.0987 66.4411 25.2907 66.5158 25.408C66.6011 25.5253 66.7291 25.584 66.8998 25.584C67.0171 25.584 67.1291 25.5573 67.2358 25.504C67.3424 25.4507 67.4704 25.3653 67.6198 25.248L67.7958 25.52C67.5718 25.6907 67.3584 25.8347 67.1558 25.952C66.9531 26.0587 66.6811 26.112 66.3398 26.112C66.0304 26.112 65.7744 26.0587 65.5718 25.952C65.3691 25.8453 65.2144 25.6907 65.1078 25.488C65.0118 25.2747 64.9638 25.008 64.9638 24.688C64.6758 25.168 64.3291 25.5253 63.9238 25.76C63.5291 25.9947 63.0811 26.112 62.5798 26.112ZM63.1558 25.472C63.5078 25.472 63.8331 25.3707 64.1318 25.168C64.4411 24.9653 64.7184 24.6613 64.9638 24.256V21.12C64.8358 21.3013 64.6491 21.456 64.4038 21.584C64.1584 21.7013 63.8918 21.824 63.6038 21.952C63.3158 22.0693 63.0384 22.2133 62.7718 22.384C62.5158 22.544 62.3024 22.7573 62.1318 23.024C61.9611 23.2907 61.8758 23.6373 61.8758 24.064C61.8758 24.4907 61.9878 24.832 62.2118 25.088C62.4464 25.344 62.7611 25.472 63.1558 25.472ZM75.5104 17.76V18.08C75.3077 18.1013 75.121 18.192 74.9504 18.352C74.7797 18.512 74.6197 18.7947 74.4704 19.2L71.8464 26.08C71.8037 26.08 71.761 26.08 71.7184 26.08C71.6757 26.08 71.6277 26.08 71.5744 26.08L68.6304 18.992C68.4597 18.576 68.289 18.3253 68.1184 18.24C67.9584 18.144 67.8197 18.096 67.7024 18.096V17.76C67.9157 17.7707 68.1344 17.7867 68.3584 17.808C68.593 17.8187 68.8437 17.824 69.1104 17.824C69.441 17.824 69.7877 17.8187 70.1504 17.808C70.5237 17.7973 70.8704 17.7813 71.1904 17.76V18.096C70.9237 18.096 70.6837 18.1173 70.4704 18.16C70.2677 18.192 70.1344 18.2933 70.0704 18.464C70.017 18.6347 70.0704 18.928 70.2304 19.344L72.2304 24.288L72.1344 24.368L73.9584 19.584C74.097 19.232 74.1504 18.9547 74.1184 18.752C74.097 18.5387 73.9904 18.3787 73.7984 18.272C73.617 18.1653 73.3344 18.1013 72.9504 18.08V17.76C73.1424 17.7707 73.3077 17.7813 73.4464 17.792C73.585 17.792 73.7184 17.7973 73.8464 17.808C73.985 17.808 74.1344 17.808 74.2944 17.808C74.5397 17.808 74.7584 17.8027 74.9504 17.792C75.153 17.7813 75.3397 17.7707 75.5104 17.76ZM79.7739 17.536C80.7125 17.536 81.4432 17.824 81.9659 18.4C82.4992 18.9653 82.7659 19.8507 82.7659 21.056H77.1179L77.1019 20.752H81.2299C81.2512 20.2293 81.2085 19.7493 81.1019 19.312C80.9952 18.864 80.8245 18.5067 80.5899 18.24C80.3659 17.9733 80.0725 17.84 79.7099 17.84C79.2192 17.84 78.7819 18.0853 78.3979 18.576C78.0245 19.0667 77.8005 19.8453 77.7259 20.912L77.7739 20.976C77.7525 21.136 77.7365 21.312 77.7259 21.504C77.7152 21.696 77.7099 21.888 77.7099 22.08C77.7099 22.8053 77.8272 23.4293 78.0619 23.952C78.2965 24.4747 78.6005 24.8747 78.9739 25.152C79.3579 25.4187 79.7525 25.552 80.1579 25.552C80.4779 25.552 80.7819 25.504 81.0699 25.408C81.3579 25.3013 81.6245 25.1307 81.8699 24.896C82.1152 24.6613 82.3285 24.3467 82.5099 23.952L82.8299 24.08C82.7125 24.432 82.5205 24.7733 82.2539 25.104C81.9872 25.4347 81.6512 25.7067 81.2459 25.92C80.8405 26.1227 80.3712 26.224 79.8379 26.224C79.0699 26.224 78.4085 26.048 77.8539 25.696C77.3099 25.344 76.8885 24.8587 76.5899 24.24C76.3019 23.6107 76.1579 22.8907 76.1579 22.08C76.1579 21.1413 76.3072 20.336 76.6059 19.664C76.9045 18.9813 77.3259 18.4587 77.8699 18.096C78.4139 17.7227 79.0485 17.536 79.7739 17.536ZM89.3556 17.536C89.761 17.536 90.097 17.5893 90.3636 17.696C90.641 17.8027 90.8703 17.952 91.0516 18.144C91.2543 18.3573 91.3983 18.624 91.4836 18.944C91.569 19.264 91.6116 19.696 91.6116 20.24V24.512C91.6116 24.96 91.7023 25.264 91.8836 25.424C92.0756 25.584 92.3903 25.664 92.8276 25.664V26C92.6463 25.9893 92.369 25.9787 91.9956 25.968C91.6223 25.9467 91.2596 25.936 90.9076 25.936C90.5556 25.936 90.209 25.9467 89.8676 25.968C89.537 25.9787 89.2863 25.9893 89.1156 26V25.664C89.4996 25.664 89.7716 25.584 89.9316 25.424C90.0916 25.264 90.1716 24.96 90.1716 24.512V19.888C90.1716 19.5573 90.145 19.2533 90.0916 18.976C90.0383 18.6987 89.9156 18.4747 89.7236 18.304C89.5423 18.1333 89.2596 18.048 88.8756 18.048C88.4276 18.048 88.033 18.176 87.6916 18.432C87.361 18.688 87.0996 19.04 86.9076 19.488C86.7263 19.9253 86.6356 20.416 86.6356 20.96V24.512C86.6356 24.96 86.7156 25.264 86.8756 25.424C87.0356 25.584 87.3076 25.664 87.6916 25.664V26C87.521 25.9893 87.265 25.9787 86.9236 25.968C86.593 25.9467 86.2516 25.936 85.8996 25.936C85.5476 25.936 85.185 25.9467 84.8116 25.968C84.4383 25.9787 84.161 25.9893 83.9796 26V25.664C84.417 25.664 84.7263 25.584 84.9076 25.424C85.0996 25.264 85.1956 24.96 85.1956 24.512V19.504C85.1956 19.024 85.1103 18.672 84.9396 18.448C84.769 18.2133 84.449 18.096 83.9796 18.096V17.76C84.321 17.792 84.6516 17.808 84.9716 17.808C85.281 17.808 85.5743 17.792 85.8516 17.76C86.1396 17.7173 86.401 17.6587 86.6356 17.584V19.472C86.913 18.7467 87.297 18.2453 87.7876 17.968C88.289 17.68 88.8116 17.536 89.3556 17.536ZM104.407 26V25.68C104.77 25.6587 105.042 25.616 105.223 25.552C105.415 25.488 105.543 25.36 105.607 25.168C105.671 24.976 105.703 24.688 105.703 24.304V16.368C105.703 15.9733 105.671 15.6853 105.607 15.504C105.543 15.312 105.415 15.184 105.223 15.12C105.042 15.0453 104.77 15.0027 104.407 14.992V14.672C104.652 14.6827 104.962 14.6933 105.335 14.704C105.708 14.7147 106.076 14.72 106.439 14.72C106.855 14.72 107.244 14.7147 107.607 14.704C107.97 14.6933 108.263 14.6827 108.487 14.672V14.992C108.124 15.0027 107.847 15.0453 107.655 15.12C107.474 15.184 107.351 15.312 107.287 15.504C107.223 15.6853 107.191 15.9733 107.191 16.368V24.304C107.191 24.688 107.223 24.976 107.287 25.168C107.351 25.36 107.474 25.488 107.655 25.552C107.847 25.616 108.124 25.6587 108.487 25.68V26C108.263 25.9787 107.97 25.968 107.607 25.968C107.244 25.9573 106.855 25.952 106.439 25.952C106.076 25.952 105.708 25.9573 105.335 25.968C104.962 25.968 104.652 25.9787 104.407 26ZM97.7189 26V25.68C98.0815 25.6587 98.3535 25.616 98.5349 25.552C98.7269 25.488 98.8549 25.36 98.9189 25.168C98.9829 24.976 99.0149 24.688 99.0149 24.304V16.368C99.0149 15.9733 98.9829 15.6853 98.9189 15.504C98.8549 15.312 98.7269 15.184 98.5349 15.12C98.3535 15.0453 98.0815 15.0027 97.7189 14.992V14.672C97.9429 14.6827 98.2362 14.6933 98.5989 14.704C98.9615 14.7147 99.3509 14.72 99.7669 14.72C100.14 14.72 100.508 14.7147 100.871 14.704C101.244 14.6933 101.554 14.6827 101.799 14.672V14.992C101.436 15.0027 101.159 15.0453 100.967 15.12C100.786 15.184 100.663 15.312 100.599 15.504C100.535 15.6853 100.503 15.9733 100.503 16.368V24.304C100.503 24.688 100.535 24.976 100.599 25.168C100.663 25.36 100.786 25.488 100.967 25.552C101.159 25.616 101.436 25.6587 101.799 25.68V26C101.554 25.9787 101.244 25.968 100.871 25.968C100.508 25.9573 100.14 25.952 99.7669 25.952C99.3509 25.952 98.9615 25.9573 98.5989 25.968C98.2362 25.968 97.9429 25.9787 97.7189 26ZM99.9429 20.464V20.144H106.263V20.464H99.9429ZM113.259 17.536C113.942 17.536 114.555 17.6853 115.099 17.984C115.643 18.2827 116.075 18.752 116.395 19.392C116.726 20.032 116.891 20.864 116.891 21.888C116.891 22.912 116.726 23.744 116.395 24.384C116.075 25.0133 115.643 25.4773 115.099 25.776C114.555 26.0747 113.942 26.224 113.259 26.224C112.587 26.224 111.974 26.0747 111.419 25.776C110.875 25.4773 110.438 25.0133 110.107 24.384C109.787 23.744 109.627 22.912 109.627 21.888C109.627 20.864 109.787 20.032 110.107 19.392C110.438 18.752 110.875 18.2827 111.419 17.984C111.974 17.6853 112.587 17.536 113.259 17.536ZM113.259 17.856C112.651 17.856 112.15 18.1707 111.755 18.8C111.371 19.4293 111.179 20.4587 111.179 21.888C111.179 23.3173 111.371 24.3467 111.755 24.976C112.15 25.5947 112.651 25.904 113.259 25.904C113.867 25.904 114.363 25.5947 114.747 24.976C115.142 24.3467 115.339 23.3173 115.339 21.888C115.339 20.4587 115.142 19.4293 114.747 18.8C114.363 18.1707 113.867 17.856 113.259 17.856ZM120.681 15.104V17.776H123.049V18.096H120.681V24.288C120.681 24.7893 120.771 25.1413 120.953 25.344C121.134 25.5467 121.385 25.648 121.705 25.648C122.025 25.648 122.302 25.52 122.537 25.264C122.771 24.9973 122.974 24.5547 123.145 23.936L123.465 24.016C123.358 24.6347 123.145 25.1573 122.825 25.584C122.515 26.0107 122.035 26.224 121.385 26.224C121.022 26.224 120.723 26.176 120.489 26.08C120.254 25.9947 120.046 25.8667 119.865 25.696C119.63 25.4507 119.465 25.1573 119.369 24.816C119.283 24.4747 119.241 24.0213 119.241 23.456V18.096H117.705V17.776H119.241V15.328C119.507 15.3173 119.763 15.296 120.009 15.264C120.254 15.232 120.478 15.1787 120.681 15.104ZM127.649 17.536C128.588 17.536 129.318 17.824 129.841 18.4C130.374 18.9653 130.641 19.8507 130.641 21.056H124.993L124.977 20.752H129.105C129.126 20.2293 129.084 19.7493 128.977 19.312C128.87 18.864 128.7 18.5067 128.465 18.24C128.241 17.9733 127.948 17.84 127.585 17.84C127.094 17.84 126.657 18.0853 126.273 18.576C125.9 19.0667 125.676 19.8453 125.601 20.912L125.649 20.976C125.628 21.136 125.612 21.312 125.601 21.504C125.59 21.696 125.585 21.888 125.585 22.08C125.585 22.8053 125.702 23.4293 125.937 23.952C126.172 24.4747 126.476 24.8747 126.849 25.152C127.233 25.4187 127.628 25.552 128.033 25.552C128.353 25.552 128.657 25.504 128.945 25.408C129.233 25.3013 129.5 25.1307 129.745 24.896C129.99 24.6613 130.204 24.3467 130.385 23.952L130.705 24.08C130.588 24.432 130.396 24.7733 130.129 25.104C129.862 25.4347 129.526 25.7067 129.121 25.92C128.716 26.1227 128.246 26.224 127.713 26.224C126.945 26.224 126.284 26.048 125.729 25.696C125.185 25.344 124.764 24.8587 124.465 24.24C124.177 23.6107 124.033 22.8907 124.033 22.08C124.033 21.1413 124.182 20.336 124.481 19.664C124.78 18.9813 125.201 18.4587 125.745 18.096C126.289 17.7227 126.924 17.536 127.649 17.536ZM134.399 13.456V24.512C134.399 24.96 134.489 25.264 134.671 25.424C134.863 25.584 135.177 25.664 135.615 25.664V26C135.433 25.9893 135.156 25.9787 134.783 25.968C134.42 25.9467 134.052 25.936 133.679 25.936C133.316 25.936 132.948 25.9467 132.575 25.968C132.201 25.9787 131.924 25.9893 131.743 26V25.664C132.18 25.664 132.489 25.584 132.671 25.424C132.863 25.264 132.959 24.96 132.959 24.512V15.376C132.959 14.896 132.873 14.544 132.703 14.32C132.532 14.0853 132.212 13.968 131.743 13.968V13.632C132.084 13.664 132.415 13.68 132.735 13.68C133.044 13.68 133.337 13.664 133.615 13.632C133.903 13.5893 134.164 13.5307 134.399 13.456ZM144.865 14.768C145.27 14.768 145.606 14.816 145.873 14.912C146.14 14.9973 146.358 15.1093 146.529 15.248C146.668 15.3547 146.78 15.472 146.865 15.6C146.95 15.728 147.014 15.856 147.057 15.984C147.1 16.112 147.121 16.2347 147.121 16.352C147.121 16.6187 147.025 16.8267 146.833 16.976C146.652 17.1253 146.449 17.2 146.225 17.2C146.012 17.2 145.82 17.1307 145.649 16.992C145.478 16.8533 145.393 16.656 145.393 16.4C145.393 16.1653 145.473 15.968 145.633 15.808C145.793 15.6373 145.996 15.5413 146.241 15.52C146.198 15.3813 146.065 15.264 145.841 15.168C145.628 15.0613 145.356 15.008 145.025 15.008C144.481 15.008 144.033 15.1733 143.681 15.504C143.34 15.824 143.169 16.2933 143.169 16.912C143.169 17.2107 143.222 17.5147 143.329 17.824C143.446 18.1333 143.665 18.4373 143.985 18.736C144.166 18.704 144.353 18.6827 144.545 18.672C144.737 18.6507 144.881 18.64 144.977 18.64C145.169 18.64 145.324 18.672 145.441 18.736C145.558 18.8 145.617 18.8907 145.617 19.008C145.617 19.104 145.574 19.1787 145.489 19.232C145.414 19.2853 145.308 19.312 145.169 19.312C144.966 19.312 144.753 19.2693 144.529 19.184C144.305 19.088 144.129 19.0133 144.001 18.96C143.382 19.1413 142.881 19.44 142.497 19.856C142.113 20.2613 141.921 20.8373 141.921 21.584C141.921 22.32 142.113 22.944 142.497 23.456C142.881 23.968 143.393 24.3627 144.033 24.64C144.684 24.9067 145.409 25.04 146.209 25.04C146.774 25.04 147.308 24.976 147.809 24.848C148.321 24.7093 148.769 24.512 149.153 24.256C149.548 24 149.857 23.696 150.081 23.344C150.305 22.9813 150.417 22.5707 150.417 22.112C150.417 21.9093 150.374 21.6533 150.289 21.344C150.204 21.024 150.028 20.7147 149.761 20.416C149.494 20.1067 149.084 19.8667 148.529 19.696L148.721 19.536C149.5 19.7707 150.054 20.1493 150.385 20.672C150.716 21.184 150.881 21.76 150.881 22.4C150.881 23.04 150.689 23.6533 150.305 24.24C149.921 24.8267 149.366 25.3067 148.641 25.68C147.916 26.0427 147.036 26.224 146.001 26.224C145.308 26.224 144.646 26.1333 144.017 25.952C143.398 25.7707 142.849 25.5093 142.369 25.168C141.889 24.816 141.51 24.3947 141.233 23.904C140.956 23.4133 140.817 22.8587 140.817 22.24C140.817 21.664 140.929 21.1733 141.153 20.768C141.377 20.352 141.654 20.0107 141.985 19.744C142.316 19.4773 142.646 19.2747 142.977 19.136C143.308 18.9867 143.574 18.8853 143.777 18.832C143.425 18.672 143.126 18.4853 142.881 18.272C142.646 18.048 142.465 17.808 142.337 17.552C142.22 17.2853 142.161 17.024 142.161 16.768C142.161 16.512 142.22 16.2667 142.337 16.032C142.454 15.7867 142.625 15.568 142.849 15.376C143.073 15.184 143.35 15.0347 143.681 14.928C144.022 14.8213 144.417 14.768 144.865 14.768ZM150.689 14.448C151.35 14.448 151.905 14.64 152.353 15.024C152.801 15.3973 153.025 15.9253 153.025 16.608C153.025 16.9707 152.956 17.296 152.817 17.584C152.689 17.8613 152.508 18.1067 152.273 18.32C152.049 18.5333 151.793 18.7093 151.505 18.848C151.26 18.9653 150.934 19.0933 150.529 19.232C150.134 19.3707 149.708 19.5093 149.249 19.648C148.801 19.7867 148.369 19.9253 147.953 20.064C147.548 20.192 147.217 20.304 146.961 20.4C146.566 20.5493 146.23 20.736 145.953 20.96C145.686 21.1733 145.553 21.4507 145.553 21.792C145.553 22.0693 145.633 22.304 145.793 22.496C145.953 22.688 146.145 22.832 146.369 22.928C146.604 23.024 146.822 23.072 147.025 23.072C147.121 23.072 147.238 23.0613 147.377 23.04C147.526 23.008 147.66 22.9653 147.777 22.912C147.894 22.8587 147.964 22.7947 147.985 22.72C147.814 22.688 147.644 22.6133 147.473 22.496C147.313 22.368 147.233 22.1707 147.233 21.904C147.233 21.648 147.318 21.4453 147.489 21.296C147.66 21.1467 147.868 21.072 148.113 21.072C148.369 21.072 148.572 21.152 148.721 21.312C148.881 21.472 148.961 21.68 148.961 21.936C148.961 22.2347 148.86 22.4907 148.657 22.704C148.465 22.9067 148.22 23.0613 147.921 23.168C147.633 23.264 147.345 23.312 147.057 23.312C146.758 23.312 146.454 23.248 146.145 23.12C145.836 22.992 145.58 22.7947 145.377 22.528C145.174 22.2507 145.073 21.888 145.073 21.44C145.073 21.0667 145.153 20.736 145.313 20.448C145.484 20.16 145.734 19.904 146.065 19.68C146.396 19.456 146.801 19.264 147.281 19.104C147.601 18.9973 147.99 18.88 148.449 18.752C148.908 18.624 149.377 18.4853 149.857 18.336C150.348 18.1867 150.79 18.0213 151.185 17.84C151.718 17.5947 152.081 17.344 152.273 17.088C152.465 16.832 152.561 16.5707 152.561 16.304C152.561 15.9947 152.476 15.7227 152.305 15.488C152.134 15.2427 151.905 15.0507 151.617 14.912C151.34 14.7627 151.036 14.688 150.705 14.688C150.577 14.688 150.47 14.6987 150.385 14.72C150.3 14.7413 150.246 14.7787 150.225 14.832C150.374 14.9067 150.486 15.0133 150.561 15.152C150.636 15.2907 150.673 15.4293 150.673 15.568C150.673 15.792 150.582 15.9787 150.401 16.128C150.23 16.2773 150.022 16.352 149.777 16.352C149.574 16.352 149.382 16.288 149.201 16.16C149.02 16.0213 148.929 15.8187 148.929 15.552C148.929 15.2747 149.02 15.056 149.201 14.896C149.393 14.736 149.622 14.624 149.889 14.56C150.166 14.4853 150.433 14.448 150.689 14.448ZM158 14.672C158.224 14.6827 158.517 14.6933 158.88 14.704C159.243 14.7147 159.6 14.72 159.952 14.72C160.453 14.72 160.933 14.7147 161.392 14.704C161.851 14.6933 162.176 14.688 162.368 14.688C163.232 14.688 163.947 14.8107 164.512 15.056C165.088 15.3013 165.515 15.6373 165.792 16.064C166.08 16.48 166.224 16.9493 166.224 17.472C166.224 17.792 166.16 18.1333 166.032 18.496C165.904 18.8587 165.68 19.2 165.36 19.52C165.051 19.84 164.624 20.1067 164.08 20.32C163.536 20.5227 162.848 20.624 162.016 20.624H160.48V20.304H161.856C162.613 20.304 163.189 20.1867 163.584 19.952C163.989 19.7067 164.261 19.3867 164.4 18.992C164.549 18.5867 164.624 18.1387 164.624 17.648C164.624 16.8053 164.421 16.1547 164.016 15.696C163.621 15.2267 162.939 14.992 161.968 14.992C161.477 14.992 161.157 15.0827 161.008 15.264C160.859 15.4453 160.784 15.8133 160.784 16.368V24.304C160.784 24.688 160.816 24.976 160.88 25.168C160.944 25.36 161.067 25.488 161.248 25.552C161.44 25.616 161.717 25.6587 162.08 25.68V26C161.835 25.9787 161.525 25.968 161.152 25.968C160.789 25.9573 160.421 25.952 160.048 25.952C159.632 25.952 159.243 25.9573 158.88 25.968C158.517 25.968 158.224 25.9787 158 26V25.68C158.363 25.6587 158.635 25.616 158.816 25.552C159.008 25.488 159.136 25.36 159.2 25.168C159.264 24.976 159.296 24.688 159.296 24.304V16.368C159.296 15.9733 159.264 15.6853 159.2 15.504C159.136 15.312 159.008 15.184 158.816 15.12C158.635 15.0453 158.363 15.0027 158 14.992V14.672ZM160.544 20.352C161.12 20.3733 161.573 20.4 161.904 20.432C162.235 20.4533 162.501 20.4747 162.704 20.496C162.917 20.5173 163.12 20.544 163.312 20.576C164.027 20.6933 164.539 20.912 164.848 21.232C165.168 21.5413 165.403 22.0267 165.552 22.688L165.952 24.32C166.059 24.7893 166.165 25.1307 166.272 25.344C166.389 25.5467 166.565 25.6427 166.8 25.632C166.981 25.6213 167.131 25.5627 167.248 25.456C167.376 25.3493 167.509 25.2053 167.648 25.024L167.888 25.2C167.664 25.5307 167.429 25.7867 167.184 25.968C166.949 26.1387 166.613 26.224 166.176 26.224C165.781 26.224 165.435 26.1067 165.136 25.872C164.837 25.6373 164.613 25.1787 164.464 24.496L164.112 22.896C164.016 22.4373 163.904 22.0427 163.776 21.712C163.659 21.3707 163.488 21.104 163.264 20.912C163.051 20.72 162.731 20.624 162.304 20.624H160.576L160.544 20.352ZM172.055 17.536C172.994 17.536 173.724 17.824 174.247 18.4C174.78 18.9653 175.047 19.8507 175.047 21.056H169.399L169.383 20.752H173.511C173.532 20.2293 173.49 19.7493 173.383 19.312C173.276 18.864 173.106 18.5067 172.871 18.24C172.647 17.9733 172.354 17.84 171.991 17.84C171.5 17.84 171.063 18.0853 170.679 18.576C170.306 19.0667 170.082 19.8453 170.007 20.912L170.055 20.976C170.034 21.136 170.018 21.312 170.007 21.504C169.996 21.696 169.991 21.888 169.991 22.08C169.991 22.8053 170.108 23.4293 170.343 23.952C170.578 24.4747 170.882 24.8747 171.255 25.152C171.639 25.4187 172.034 25.552 172.439 25.552C172.759 25.552 173.063 25.504 173.351 25.408C173.639 25.3013 173.906 25.1307 174.151 24.896C174.396 24.6613 174.61 24.3467 174.791 23.952L175.111 24.08C174.994 24.432 174.802 24.7733 174.535 25.104C174.268 25.4347 173.932 25.7067 173.527 25.92C173.122 26.1227 172.652 26.224 172.119 26.224C171.351 26.224 170.69 26.048 170.135 25.696C169.591 25.344 169.17 24.8587 168.871 24.24C168.583 23.6107 168.439 22.8907 168.439 22.08C168.439 21.1413 168.588 20.336 168.887 19.664C169.186 18.9813 169.607 18.4587 170.151 18.096C170.695 17.7227 171.33 17.536 172.055 17.536ZM179.125 17.536C179.552 17.536 179.914 17.6053 180.213 17.744C180.512 17.8827 180.73 18.0107 180.869 18.128C181.221 18.416 181.434 18.224 181.509 17.552H181.877C181.856 17.8507 181.84 18.208 181.829 18.624C181.818 19.0293 181.813 19.5787 181.813 20.272H181.445C181.381 19.8773 181.269 19.4933 181.109 19.12C180.96 18.7467 180.736 18.4427 180.437 18.208C180.138 17.9627 179.749 17.84 179.269 17.84C178.896 17.84 178.581 17.9467 178.325 18.16C178.08 18.3627 177.957 18.6667 177.957 19.072C177.957 19.392 178.053 19.6693 178.245 19.904C178.437 20.128 178.688 20.3413 178.997 20.544C179.306 20.736 179.642 20.9493 180.005 21.184C180.41 21.44 180.778 21.7013 181.109 21.968C181.44 22.2347 181.701 22.528 181.893 22.848C182.096 23.168 182.197 23.5467 182.197 23.984C182.197 24.4747 182.069 24.8853 181.813 25.216C181.557 25.5467 181.221 25.7973 180.805 25.968C180.4 26.1387 179.952 26.224 179.461 26.224C179.226 26.224 179.002 26.2027 178.789 26.16C178.586 26.128 178.389 26.0747 178.197 26C178.09 25.9467 177.978 25.8827 177.861 25.808C177.754 25.7333 177.648 25.6533 177.541 25.568C177.434 25.4827 177.338 25.488 177.253 25.584C177.168 25.6693 177.104 25.8453 177.061 26.112H176.693C176.714 25.7707 176.73 25.3547 176.741 24.864C176.752 24.3733 176.757 23.7227 176.757 22.912H177.125C177.2 23.5093 177.306 24.032 177.445 24.48C177.584 24.928 177.802 25.28 178.101 25.536C178.4 25.7813 178.816 25.904 179.349 25.904C179.562 25.904 179.776 25.856 179.989 25.76C180.213 25.664 180.4 25.504 180.549 25.28C180.698 25.056 180.773 24.7573 180.773 24.384C180.773 23.9147 180.602 23.5307 180.261 23.232C179.92 22.9333 179.488 22.6187 178.965 22.288C178.581 22.0427 178.218 21.7973 177.877 21.552C177.546 21.3067 177.274 21.0293 177.061 20.72C176.858 20.4107 176.757 20.0373 176.757 19.6C176.757 19.12 176.864 18.7307 177.077 18.432C177.301 18.1227 177.594 17.8987 177.957 17.76C178.32 17.6107 178.709 17.536 179.125 17.536ZM187.337 17.536C188.02 17.536 188.633 17.6853 189.177 17.984C189.721 18.2827 190.153 18.752 190.473 19.392C190.804 20.032 190.969 20.864 190.969 21.888C190.969 22.912 190.804 23.744 190.473 24.384C190.153 25.0133 189.721 25.4773 189.177 25.776C188.633 26.0747 188.02 26.224 187.337 26.224C186.665 26.224 186.052 26.0747 185.497 25.776C184.953 25.4773 184.516 25.0133 184.185 24.384C183.865 23.744 183.705 22.912 183.705 21.888C183.705 20.864 183.865 20.032 184.185 19.392C184.516 18.752 184.953 18.2827 185.497 17.984C186.052 17.6853 186.665 17.536 187.337 17.536ZM187.337 17.856C186.729 17.856 186.228 18.1707 185.833 18.8C185.449 19.4293 185.257 20.4587 185.257 21.888C185.257 23.3173 185.449 24.3467 185.833 24.976C186.228 25.5947 186.729 25.904 187.337 25.904C187.945 25.904 188.441 25.5947 188.825 24.976C189.22 24.3467 189.417 23.3173 189.417 21.888C189.417 20.4587 189.22 19.4293 188.825 18.8C188.441 18.1707 187.945 17.856 187.337 17.856ZM197.159 17.536C197.447 17.536 197.697 17.5947 197.911 17.712C198.135 17.8293 198.305 17.984 198.423 18.176C198.551 18.3573 198.615 18.5653 198.615 18.8C198.615 19.0667 198.529 19.3013 198.359 19.504C198.199 19.7067 197.98 19.808 197.703 19.808C197.479 19.808 197.281 19.7387 197.111 19.6C196.94 19.4507 196.855 19.2427 196.855 18.976C196.855 18.7733 196.908 18.6027 197.015 18.464C197.132 18.3147 197.26 18.1973 197.399 18.112C197.324 18.0053 197.212 17.952 197.063 17.952C196.732 17.952 196.428 18.0533 196.151 18.256C195.873 18.448 195.639 18.6987 195.447 19.008C195.255 19.3173 195.105 19.648 194.999 20C194.892 20.3413 194.839 20.6613 194.839 20.96V24.352C194.839 24.8747 194.988 25.2267 195.287 25.408C195.596 25.5787 196.012 25.664 196.535 25.664V26C196.289 25.9893 195.943 25.9787 195.495 25.968C195.047 25.9467 194.572 25.936 194.071 25.936C193.708 25.936 193.345 25.9467 192.983 25.968C192.631 25.9787 192.364 25.9893 192.183 26V25.664C192.62 25.664 192.929 25.584 193.111 25.424C193.303 25.264 193.399 24.96 193.399 24.512V19.504C193.399 19.024 193.313 18.672 193.143 18.448C192.972 18.2133 192.652 18.096 192.183 18.096V17.76C192.524 17.792 192.855 17.808 193.175 17.808C193.484 17.808 193.777 17.792 194.055 17.76C194.343 17.7173 194.604 17.6587 194.839 17.584V19.584C194.956 19.2747 195.121 18.9653 195.335 18.656C195.559 18.336 195.825 18.0693 196.135 17.856C196.444 17.6427 196.785 17.536 197.159 17.536ZM201.884 15.104V17.776H204.252V18.096H201.884V24.288C201.884 24.7893 201.974 25.1413 202.156 25.344C202.337 25.5467 202.588 25.648 202.908 25.648C203.228 25.648 203.505 25.52 203.74 25.264C203.974 24.9973 204.177 24.5547 204.348 23.936L204.668 24.016C204.561 24.6347 204.348 25.1573 204.028 25.584C203.718 26.0107 203.238 26.224 202.588 26.224C202.225 26.224 201.926 26.176 201.692 26.08C201.457 25.9947 201.249 25.8667 201.068 25.696C200.833 25.4507 200.668 25.1573 200.572 24.816C200.486 24.4747 200.444 24.0213 200.444 23.456V18.096H198.908V17.776H200.444V15.328C200.71 15.3173 200.966 15.296 201.212 15.264C201.457 15.232 201.681 15.1787 201.884 15.104Z" fill="#FBFCF8"/>
</svg>
